<svg width="40" height="41" viewBox="0 0 40 41" fill="none" xmlns="http://www.w3.org/2000/svg">
<path d="M19.9177 27.9733C20.1881 27.9733 20.3908 27.9057 20.526 27.7705C20.6612 27.6353 20.7288 27.4325 20.7288 27.1621V23.5118C20.7288 23.1513 20.5936 22.9035 20.3232 22.7683C20.0529 22.6331 19.7825 22.6331 19.5121 22.7683C19.2417 22.9035 19.1065 23.1513 19.1065 23.5118V27.1621C19.1065 27.4325 19.1966 27.6353 19.3769 27.7705C19.5571 27.9057 19.7374 27.9733 19.9177 27.9733ZM19.9177 11.3442C20.1881 11.3442 20.3908 11.2766 20.526 11.1415C20.6612 11.0063 20.7288 10.8485 20.7288 10.6683V6.8828C20.7288 6.61241 20.5936 6.40962 20.3232 6.27442C20.0529 6.13923 19.7825 6.13923 19.5121 6.27442C19.2417 6.40962 19.1065 6.61241 19.1065 6.8828V10.6683C19.1065 10.8485 19.1966 11.0063 19.3769 11.1415C19.5571 11.2766 19.7374 11.3442 19.9177 11.3442ZM19.9177 19.7264C20.1881 19.7264 20.3908 19.6362 20.526 19.456C20.6612 19.2757 20.7288 19.0954 20.7288 18.9152V15.2649C20.7288 14.9945 20.6612 14.7917 20.526 14.6565C20.3908 14.5213 20.2106 14.4537 19.9853 14.4537C19.7599 14.4537 19.5571 14.5213 19.3769 14.6565C19.1966 14.7917 19.1065 14.9945 19.1065 15.2649V18.9152C19.1065 19.0954 19.1966 19.2757 19.3769 19.456C19.5571 19.6362 19.7374 19.7264 19.9177 19.7264ZM25.4607 11.3442C25.6409 11.3442 25.8212 11.2766 26.0015 11.1415C26.1817 11.0063 26.2718 10.8485 26.2718 10.6683V6.8828C26.2718 6.70254 26.1817 6.52228 26.0015 6.34202C25.8212 6.16176 25.6409 6.07163 25.4607 6.07163C25.2804 6.07163 25.1002 6.16176 24.9199 6.34202C24.7396 6.52228 24.6495 6.70254 24.6495 6.8828V10.6683C24.6495 10.8485 24.7396 11.0063 24.9199 11.1415C25.1002 11.2766 25.2804 11.3442 25.4607 11.3442ZM25.4607 19.7264C25.6409 19.7264 25.8212 19.6362 26.0015 19.456C26.1817 19.2757 26.2718 19.0954 26.2718 18.9152V15.2649C26.2718 14.9945 26.1817 14.7917 26.0015 14.6565C25.8212 14.5213 25.6409 14.4537 25.4607 14.4537C25.2804 14.4537 25.1002 14.5213 24.9199 14.6565C24.7396 14.7917 24.6495 14.9945 24.6495 15.2649V18.9152C24.6495 19.0954 24.7396 19.2757 24.9199 19.456C25.1002 19.6362 25.2804 19.7264 25.4607 19.7264ZM25.4607 27.9733C25.6409 27.9733 25.8212 27.9057 26.0015 27.7705C26.1817 27.6353 26.2718 27.4325 26.2718 27.1621V23.5118C26.2718 23.2414 26.1817 23.0386 26.0015 22.9035C25.8212 22.7683 25.6409 22.7007 25.4607 22.7007C25.2804 22.7007 25.1002 22.7683 24.9199 22.9035C24.7396 23.0386 24.6495 23.2414 24.6495 23.5118V27.1621C24.6495 27.4325 24.7396 27.6353 24.9199 27.7705C25.1002 27.9057 25.2804 27.9733 25.4607 27.9733ZM34.654 30.9476H35.3299C35.5102 30.9476 35.6679 30.88 35.8031 30.7448C35.9383 30.6096 36.0059 30.4293 36.0059 30.204C36.0059 29.9787 35.9383 29.7984 35.8031 29.6632C35.6679 29.528 35.5102 29.4604 35.3299 29.4604H34.654C34.3836 29.4604 34.1808 29.528 34.0456 29.6632C33.9104 29.7984 33.8428 29.9787 33.8428 30.204C33.8428 30.4293 33.9104 30.6096 34.0456 30.7448C34.1808 30.88 34.3836 30.9476 34.654 30.9476ZM34.654 26.4861H35.3299C35.5102 26.4861 35.6679 26.4185 35.8031 26.2833C35.9383 26.1481 36.0059 25.9679 36.0059 25.7426C36.0059 25.5172 35.9383 25.3144 35.8031 25.1342C35.6679 24.9539 35.5102 24.8638 35.3299 24.8638H34.654C34.3836 24.8638 34.1808 24.9539 34.0456 25.1342C33.9104 25.3144 33.8428 25.5172 33.8428 25.7426C33.8428 25.9679 33.9104 26.1481 34.0456 26.2833C34.1808 26.4185 34.3836 26.4861 34.654 26.4861ZM34.654 35.409H35.3299C35.5102 35.409 35.6679 35.3189 35.8031 35.1386C35.9383 34.9584 36.0059 34.7781 36.0059 34.5978C36.0059 34.4176 35.9383 34.2373 35.8031 34.0571C35.6679 33.8768 35.5102 33.7867 35.3299 33.7867H34.654C34.3836 33.7867 34.1808 33.8768 34.0456 34.0571C33.9104 34.2373 33.8428 34.4176 33.8428 34.5978C33.8428 34.7781 33.9104 34.9584 34.0456 35.1386C34.1808 35.3189 34.3836 35.409 34.654 35.409ZM10.5892 22.0247H11.2652C11.4454 22.0247 11.6031 21.9571 11.7383 21.8219C11.8735 21.6867 11.9411 21.5064 11.9411 21.2811C11.9411 21.0558 11.8735 20.8755 11.7383 20.7403C11.6031 20.6051 11.4454 20.5375 11.2652 20.5375H10.5892C10.3188 20.5375 10.116 20.6051 9.9808 20.7403C9.84561 20.8755 9.77801 21.0558 9.77801 21.2811C9.77801 21.5064 9.84561 21.6867 9.9808 21.8219C10.116 21.9571 10.3188 22.0247 10.5892 22.0247ZM10.5892 17.5632H11.2652C11.4454 17.5632 11.6031 17.4956 11.7383 17.3604C11.8735 17.2252 11.9411 17.045 11.9411 16.8197C11.9411 16.5943 11.8735 16.4141 11.7383 16.2789C11.6031 16.1437 11.4454 16.0761 11.2652 16.0761H10.5892C10.3188 16.0761 10.116 16.1437 9.9808 16.2789C9.84561 16.4141 9.77801 16.5943 9.77801 16.8197C9.77801 17.045 9.84561 17.2252 9.9808 17.3604C10.116 17.4956 10.3188 17.5632 10.5892 17.5632ZM10.5892 26.4861H11.2652C11.4454 26.4861 11.6031 26.4185 11.7383 26.2833C11.8735 26.1481 11.9411 25.9679 11.9411 25.7426C11.9411 25.5172 11.8735 25.3144 11.7383 25.1342C11.6031 24.9539 11.4454 24.8638 11.2652 24.8638H10.5892C10.2287 24.8638 9.9808 24.999 9.84561 25.2694C9.71041 25.5398 9.71041 25.8102 9.84561 26.0805C9.9808 26.3509 10.2287 26.4861 10.5892 26.4861ZM38.9802 18.5096H31.6797V1.74538C31.6797 1.47499 31.6121 1.27219 31.4769 1.137C31.3417 1.0018 31.1389 0.934204 30.8685 0.934204H14.5098C14.3296 0.934204 14.1493 1.02433 13.9691 1.2046C13.7888 1.38486 13.6987 1.56512 13.6987 1.74538V11.4794H7.2093C7.02904 11.4794 6.84878 11.547 6.66852 11.6822C6.48826 11.8174 6.39813 12.0202 6.39813 12.2906V21.8895C6.39813 22.1599 6.48826 22.3627 6.66852 22.4979C6.84878 22.6331 7.05157 22.7007 7.2769 22.7007C7.50222 22.7007 7.68248 22.6331 7.81768 22.4979C7.95287 22.3627 8.02047 22.1599 8.02047 21.8895V12.9666H13.6987V39.0593H8.02047C7.75008 39.0593 7.54729 39.1494 7.41209 39.3297C7.2769 39.5099 7.2093 39.7127 7.2093 39.9381C7.2093 40.1634 7.2769 40.3437 7.41209 40.4788C7.54729 40.614 7.75008 40.6816 8.02047 40.6816H36.2763C37.2677 40.6816 38.1014 40.3437 38.7774 39.6677C39.4534 38.9917 39.7914 38.2031 39.7914 37.3018V19.3208C39.7914 19.1405 39.7013 18.9603 39.521 18.78C39.3407 18.5997 39.1605 18.5096 38.9802 18.5096ZM20.7288 39.0593V32.9755H24.6495V39.0593H20.7288ZM30.0573 39.0593H26.2718V32.1643C26.2718 31.8939 26.1817 31.6911 26.0015 31.556C25.8212 31.4208 25.6409 31.3532 25.4607 31.3532H19.9177C19.7374 31.3532 19.5571 31.4208 19.3769 31.556C19.1966 31.6911 19.1065 31.8939 19.1065 32.1643V39.0593H15.321V2.42135H30.0573V39.0593ZM38.169 37.3018C38.169 37.7524 37.9888 38.1805 37.6283 38.5861C37.2677 38.9917 36.8171 39.1945 36.2763 39.1945H31.6797V20.1319H38.169V37.3018ZM9.37243 29.866C9.37243 28.5141 8.69645 27.2072 7.34449 25.9453C6.62345 25.2243 5.85735 24.6385 5.04617 24.1878C4.86591 24.0977 4.64059 24.0977 4.3702 24.1878C3.64915 24.6385 2.88305 25.2243 2.07188 25.9453C0.719922 27.2072 0.0439453 28.5366 0.0439453 29.9336C0.0439453 31.3306 0.404466 32.5699 1.12551 33.6515C1.84655 34.733 2.79292 35.364 3.96461 35.5442V39.8705C3.96461 40.1409 4.03221 40.3437 4.1674 40.4788C4.3026 40.614 4.48286 40.6816 4.70819 40.6816C4.93351 40.6816 5.11377 40.614 5.24897 40.4788C5.38416 40.3437 5.45176 40.1409 5.45176 39.8705V35.5442C6.62345 35.364 7.56982 34.733 8.29086 33.6515C9.0119 32.5699 9.37243 31.3081 9.37243 29.866ZM1.53109 29.866C1.53109 29.145 1.93668 28.3338 2.74785 27.4325C3.28863 26.8917 3.96461 26.3509 4.77578 25.8102C5.49682 26.3509 6.12774 26.8917 6.66852 27.4325C7.47969 28.3338 7.88528 29.145 7.88528 29.866C7.88528 30.8574 7.65995 31.7362 7.2093 32.5023C6.75865 33.2684 6.1728 33.7416 5.45176 33.9219V32.1643C5.45176 31.8939 5.38416 31.6911 5.24897 31.556C5.11377 31.4208 4.93351 31.3532 4.70819 31.3532C4.48286 31.3532 4.3026 31.4208 4.1674 31.556C4.03221 31.6911 3.96461 31.8939 3.96461 32.1643V33.9219C3.24357 33.7416 2.65772 33.2684 2.20707 32.5023C1.75642 31.7362 1.53109 30.8574 1.53109 29.866Z" fill="#1563DF"/>
</svg>
