<svg width="24" height="24" viewBox="0 0 24 24" fill="none" xmlns="http://www.w3.org/2000/svg">
<path d="M17.7764 8.14427C17.7764 6.63903 17.1785 5.19544 16.1141 4.13107C15.0498 3.0667 13.6062 2.46875 12.1009 2.46875C10.5957 2.46875 9.1521 3.0667 8.08773 4.13107C7.02336 5.19544 6.42541 6.63903 6.42541 8.14427C6.42541 14.7657 3.58765 16.6576 3.58765 16.6576H20.6142C20.6142 16.6576 17.7764 14.7657 17.7764 8.14427Z" stroke="#0B0B0B" stroke-width="1.89184" stroke-linecap="round" stroke-linejoin="round"/>
<path d="M13.7372 20.4395C13.5709 20.7261 13.3322 20.9641 13.045 21.1295C12.7578 21.295 12.4322 21.382 12.1008 21.382C11.7694 21.382 11.4438 21.295 11.1566 21.1295C10.8694 20.9641 10.6307 20.7261 10.4644 20.4395" stroke="#0B0B0B" stroke-width="1.89184" stroke-linecap="round" stroke-linejoin="round"/>
</svg>
