<svg width="23" height="22" viewBox="0 0 23 22" fill="none" xmlns="http://www.w3.org/2000/svg">
<path d="M11.4333 2.02539V8.25733L13.2139 6.47678" stroke="#222222" stroke-width="2.00312" stroke-linecap="round" stroke-linejoin="round"/>
<path d="M11.4333 8.25517L9.65271 6.47461" stroke="#222222" stroke-width="2.00312" stroke-linecap="round" stroke-linejoin="round"/>
<path d="M2.5127 11.8164H6.43882C6.77713 11.8164 7.07982 12.0034 7.23117 12.3061L8.27279 14.3893C8.57549 14.9947 9.18978 15.3775 9.86639 15.3775H13.0091C13.6857 15.3775 14.3 14.9947 14.6027 14.3893L15.6443 12.3061C15.7956 12.0034 16.1072 11.8164 16.4366 11.8164H20.3183" stroke="#222222" stroke-width="2.00312" stroke-linecap="round" stroke-linejoin="round"/>
<path d="M6.98203 3.92188C3.83045 4.38482 2.53064 6.2366 2.53064 10.0381V13.5992C2.53064 18.0506 4.3112 19.8311 8.76258 19.8311H14.1043C18.5556 19.8311 20.3362 18.0506 20.3362 13.5992V10.0381C20.3362 6.2366 19.0364 4.38482 15.8848 3.92188" stroke="#222222" stroke-width="2.00312" stroke-linecap="round" stroke-linejoin="round"/>
</svg>
