<svg width="30" height="24" viewBox="0 0 30 24" fill="none" xmlns="http://www.w3.org/2000/svg">
<path d="M13.5 18V1.5C13.5 1.10218 13.658 0.720644 13.9393 0.43934C14.2206 0.158035 14.6022 0 15 0C15.3978 0 15.7794 0.158035 16.0607 0.43934C16.342 0.720644 16.5 1.10218 16.5 1.5V18H18C18.3978 18 18.7794 18.158 19.0607 18.4393C19.342 18.7206 19.5 19.1022 19.5 19.5C19.5 19.8978 19.342 20.2794 19.0607 20.5607C18.7794 20.842 18.3978 21 18 21H16.5V22.5C16.5 22.8978 16.342 23.2794 16.0607 23.5607C15.7794 23.842 15.3978 24 15 24C14.6022 24 14.2206 23.842 13.9393 23.5607C13.658 23.2794 13.5 22.8978 13.5 22.5V21H12C11.6022 21 11.2206 20.842 10.9393 20.5607C10.658 20.2794 10.5 19.8978 10.5 19.5C10.5 19.1022 10.658 18.7206 10.9393 18.4393C11.2206 18.158 11.6022 18 12 18H13.5ZM24 3V1.5C24 1.10218 24.158 0.720644 24.4393 0.43934C24.7206 0.158035 25.1022 0 25.5 0C25.8978 0 26.2794 0.158035 26.5607 0.43934C26.842 0.720644 27 1.10218 27 1.5V3H28.5C28.8978 3 29.2794 3.15804 29.5607 3.43934C29.842 3.72064 30 4.10218 30 4.5C30 4.89782 29.842 5.27936 29.5607 5.56066C29.2794 5.84196 28.8978 6 28.5 6H27V22.5C27 22.8978 26.842 23.2794 26.5607 23.5607C26.2794 23.842 25.8978 24 25.5 24C25.1022 24 24.7206 23.842 24.4393 23.5607C24.158 23.2794 24 22.8978 24 22.5V6H22.5C22.1022 6 21.7206 5.84196 21.4393 5.56066C21.158 5.27936 21 4.89782 21 4.5C21 4.10218 21.158 3.72064 21.4393 3.43934C21.7206 3.15804 22.1022 3 22.5 3H24ZM6 7.5H7.5C7.89782 7.5 8.27936 7.65804 8.56066 7.93934C8.84196 8.22064 9 8.60218 9 9C9 9.39782 8.84196 9.77936 8.56066 10.0607C8.27936 10.342 7.89782 10.5 7.5 10.5H6V22.5C6 22.8978 5.84196 23.2794 5.56066 23.5607C5.27936 23.842 4.89782 24 4.5 24C4.10218 24 3.72064 23.842 3.43934 23.5607C3.15804 23.2794 3 22.8978 3 22.5V10.5H1.5C1.10218 10.5 0.720644 10.342 0.43934 10.0607C0.158035 9.77936 0 9.39782 0 9C0 8.60218 0.158035 8.22064 0.43934 7.93934C0.720644 7.65804 1.10218 7.5 1.5 7.5H3V1.5C3 1.10218 3.15804 0.720644 3.43934 0.43934C3.72064 0.158035 4.10218 0 4.5 0C4.89782 0 5.27936 0.158035 5.56066 0.43934C5.84196 0.720644 6 1.10218 6 1.5V7.5Z" fill="white"/>
</svg>
