<svg width="23" height="22" viewBox="0 0 23 22" fill="none" xmlns="http://www.w3.org/2000/svg">
<path d="M20.0424 12.975L19.6863 17.4264C19.5527 18.7885 19.4459 19.8302 17.0332 19.8302H5.83355C3.4209 19.8302 3.31406 18.7885 3.18052 17.4264L2.82441 12.975C2.75319 12.2361 2.98466 11.5506 3.40309 11.0253C3.41199 11.0164 3.41199 11.0164 3.4209 11.0075C3.91055 10.411 4.64948 10.0371 5.47744 10.0371H17.3894C18.2173 10.0371 18.9473 10.411 19.4281 10.9897C19.437 10.9986 19.4459 11.0075 19.4459 11.0164C19.8821 11.5417 20.1225 12.2272 20.0424 12.975Z" stroke="#0B0B0B" stroke-width="2.00312" stroke-miterlimit="10"/>
<path d="M3.86597 10.4194V5.83446C3.86597 2.80752 4.6227 2.05078 7.64965 2.05078H8.7803C9.91095 2.05078 10.1691 2.38909 10.5965 2.95886L11.7271 4.47234C12.012 4.84625 12.1812 5.07773 12.9379 5.07773H15.2081C18.2351 5.07773 18.9918 5.83446 18.9918 8.86141V10.455" stroke="#0B0B0B" stroke-width="2.00312" stroke-miterlimit="10" stroke-linecap="round" stroke-linejoin="round"/>
<path d="M9.14526 15.3789H13.7213" stroke="#0B0B0B" stroke-width="2.00312" stroke-miterlimit="10" stroke-linecap="round" stroke-linejoin="round"/>
</svg>
