<svg width="42" height="41" viewBox="0 0 42 41" fill="none" xmlns="http://www.w3.org/2000/svg">
<path d="M38.9091 4.31365L21.4689 0.392986C20.5676 0.122593 19.779 0.280323 19.103 0.866169C18.427 1.45201 18.089 2.19559 18.089 3.09689V7.15276L12.9516 11.479C12.5911 10.5777 11.9827 9.85666 11.1265 9.31588C10.2702 8.7751 9.34639 8.50471 8.35495 8.50471C7.003 8.50471 5.83131 8.97789 4.83987 9.92426C3.84844 10.8706 3.30766 12.0649 3.21753 13.5069C1.86557 14.228 1.00934 15.3095 0.648816 16.7516C0.288295 18.1937 0.513621 19.5457 1.32479 20.8075C0.784012 21.6187 0.513621 22.565 0.513621 23.6466C0.513621 25.1788 1.09947 26.4857 2.27116 27.5673V37.9773C2.27116 38.7885 2.54155 39.4645 3.08233 40.0052C3.62311 40.546 4.29909 40.8164 5.11026 40.8164H38.2331C39.0443 40.8164 39.7203 40.546 40.2611 40.0052C40.8018 39.4645 41.0722 38.7885 41.0722 37.9773V7.01756C41.0722 6.38665 40.8694 5.82333 40.4639 5.32762C40.0583 4.8319 39.54 4.49391 38.9091 4.31365ZM7.1382 38.3829H5.11026C4.83987 38.3829 4.70468 38.2477 4.70468 37.9773V28.6488C5.51585 28.8291 6.32702 28.784 7.1382 28.5136V38.3829ZM7.54378 25.6745C6.91287 26.2153 6.23689 26.4632 5.51585 26.4181C4.79481 26.373 4.18643 26.1026 3.69071 25.6069C3.195 25.1112 2.94714 24.4578 2.94714 23.6466C2.94714 22.8354 3.21753 22.1594 3.75831 21.6187C4.0287 21.4384 4.1639 21.168 4.1639 20.8075C4.1639 20.447 3.98364 20.1315 3.62311 19.8611L3.48792 19.5907C2.85701 18.8697 2.67675 18.0585 2.94714 17.1572C3.21753 16.2559 3.84844 15.6701 4.83987 15.3997C5.11026 15.3095 5.31306 15.1293 5.44825 14.8589C5.58345 14.5885 5.65105 14.3181 5.65105 14.0477C5.47079 13.2365 5.67358 12.5155 6.25943 11.8846C6.84527 11.2537 7.54378 10.9382 8.35495 10.9382C9.16613 10.9382 9.8421 11.2537 10.3829 11.8846C10.9237 12.5155 11.149 13.2365 11.0589 14.0477C11.0589 14.3181 11.1265 14.5885 11.2617 14.8589C11.3968 15.1293 11.5996 15.3095 11.87 15.3997C12.5009 15.5799 12.9967 15.9405 13.3572 16.4812C13.7177 17.022 13.8529 17.6079 13.7628 18.2388C13.6726 18.8697 13.4022 19.4555 12.9516 19.9963C12.6812 20.1766 12.546 20.447 12.546 20.8075C12.546 21.168 12.6812 21.4384 12.9516 21.6187C13.4924 22.1594 13.7628 22.8129 13.7628 23.579C13.7628 24.3451 13.5149 24.9985 13.0192 25.5393C12.5235 26.0801 11.8926 26.373 11.1265 26.4181C10.3604 26.4632 9.70691 26.2153 9.16613 25.6745C8.89573 25.4943 8.60281 25.4041 8.28736 25.4041C7.9719 25.4041 7.72404 25.4943 7.54378 25.6745ZM18.089 38.3829H9.57171V28.5136C10.5631 28.8741 11.5771 28.8741 12.6136 28.5136C13.6501 28.1531 14.5063 27.5447 15.1823 26.6885C15.8583 25.8323 16.1963 24.8408 16.1963 23.7142C16.1963 22.5876 15.8808 21.6187 15.2499 20.8075C16.0611 19.6358 16.3315 18.374 16.0611 17.022C15.7907 15.6701 15.1147 14.5885 14.0332 13.7773L18.089 10.2622V38.3829ZM33.5013 38.3829H25.66V29.1896C25.66 28.9192 25.7952 28.784 26.0655 28.784H33.0957C33.3661 28.784 33.5013 28.9192 33.5013 29.1896V38.3829ZM38.6387 37.9773C38.6387 38.2477 38.5035 38.3829 38.2331 38.3829H35.7996V29.1896C35.7996 28.3784 35.5292 27.7025 34.9884 27.1617C34.4477 26.6209 33.8168 26.3505 33.0957 26.3505H26.0655C25.3445 26.3505 24.7136 26.6209 24.1728 27.1617C23.632 27.7025 23.3616 28.3784 23.3616 29.1896V38.3829H20.5225V3.09689C20.5225 2.91663 20.5676 2.78144 20.6577 2.69131C20.7479 2.60118 20.838 2.60118 20.9281 2.69131L38.3683 6.61197C38.5486 6.7021 38.6387 6.8373 38.6387 7.01756V37.9773ZM24.4432 9.99186C24.1728 9.99186 23.925 10.1045 23.6996 10.3298C23.4743 10.5552 23.3616 10.8481 23.3616 11.2086V11.3438C23.3616 11.6142 23.4743 11.8846 23.6996 12.155C23.925 12.4254 24.1953 12.5606 24.5108 12.5606C24.8263 12.5606 25.0966 12.4254 25.322 12.155C25.5473 11.8846 25.66 11.6142 25.66 11.3438V11.2086C25.66 10.8481 25.5473 10.5552 25.322 10.3298C25.0966 10.1045 24.8037 9.99186 24.4432 9.99186ZM29.5806 9.99186C29.2201 9.99186 28.9272 10.1045 28.7019 10.3298C28.4765 10.5552 28.3639 10.8481 28.3639 11.2086V11.3438C28.3639 11.6142 28.4765 11.8846 28.7019 12.155C28.9272 12.4254 29.2201 12.5606 29.5806 12.5606C29.9412 12.5606 30.2341 12.4254 30.4594 12.155C30.6847 11.8846 30.7974 11.6142 30.7974 11.3438V11.2086C30.7974 10.8481 30.6847 10.5552 30.4594 10.3298C30.2341 10.1045 29.9412 9.99186 29.5806 9.99186ZM34.5829 9.99186C34.3125 9.99186 34.0646 10.1045 33.8393 10.3298C33.614 10.5552 33.5013 10.8481 33.5013 11.2086V11.3438C33.5013 11.6142 33.614 11.8846 33.8393 12.155C34.0646 12.4254 34.335 12.5606 34.6505 12.5606C34.9659 12.5606 35.2363 12.4254 35.4616 12.155C35.687 11.8846 35.7996 11.6142 35.7996 11.3438V11.2086C35.7996 10.8481 35.687 10.5552 35.4616 10.3298C35.2363 10.1045 34.9434 9.99186 34.5829 9.99186ZM24.4432 15.5349C24.1728 15.5349 23.925 15.6475 23.6996 15.8729C23.4743 16.0982 23.3616 16.3911 23.3616 16.7516V16.8868C23.3616 17.2473 23.4743 17.5403 23.6996 17.7656C23.925 17.9909 24.1953 18.1036 24.5108 18.1036C24.8263 18.1036 25.0966 17.9909 25.322 17.7656C25.5473 17.5403 25.66 17.2473 25.66 16.8868V16.7516C25.66 16.3911 25.5473 16.0982 25.322 15.8729C25.0966 15.6475 24.8037 15.5349 24.4432 15.5349ZM29.5806 15.5349C29.2201 15.5349 28.9272 15.6475 28.7019 15.8729C28.4765 16.0982 28.3639 16.3911 28.3639 16.7516V16.8868C28.3639 17.2473 28.4765 17.5403 28.7019 17.7656C28.9272 17.9909 29.2201 18.1036 29.5806 18.1036C29.9412 18.1036 30.2341 17.9909 30.4594 17.7656C30.6847 17.5403 30.7974 17.2473 30.7974 16.8868V16.7516C30.7974 16.3911 30.6847 16.0982 30.4594 15.8729C30.2341 15.6475 29.9412 15.5349 29.5806 15.5349ZM34.5829 15.5349C34.3125 15.5349 34.0646 15.6475 33.8393 15.8729C33.614 16.0982 33.5013 16.3911 33.5013 16.7516V16.8868C33.5013 17.2473 33.614 17.5403 33.8393 17.7656C34.0646 17.9909 34.335 18.1036 34.6505 18.1036C34.9659 18.1036 35.2363 17.9909 35.4616 17.7656C35.687 17.5403 35.7996 17.2473 35.7996 16.8868V16.7516C35.7996 16.3911 35.687 16.0982 35.4616 15.8729C35.2363 15.6475 34.9434 15.5349 34.5829 15.5349ZM24.4432 21.3483C24.1728 21.3483 23.925 21.4609 23.6996 21.6863C23.4743 21.9116 23.3616 22.1594 23.3616 22.4298V22.7002C23.3616 22.9706 23.4743 23.241 23.6996 23.5114C23.925 23.7818 24.1953 23.917 24.5108 23.917C24.8263 23.917 25.0966 23.7818 25.322 23.5114C25.5473 23.241 25.66 22.9706 25.66 22.7002V22.4298C25.66 22.1594 25.5473 21.9116 25.322 21.6863C25.0966 21.4609 24.8037 21.3483 24.4432 21.3483ZM29.5806 21.3483C29.2201 21.3483 28.9272 21.4609 28.7019 21.6863C28.4765 21.9116 28.3639 22.1594 28.3639 22.4298V22.7002C28.3639 22.9706 28.4765 23.241 28.7019 23.5114C28.9272 23.7818 29.2201 23.917 29.5806 23.917C29.9412 23.917 30.2341 23.7818 30.4594 23.5114C30.6847 23.241 30.7974 22.9706 30.7974 22.7002V22.4298C30.7974 22.1594 30.6847 21.9116 30.4594 21.6863C30.2341 21.4609 29.9412 21.3483 29.5806 21.3483ZM34.5829 21.3483C34.3125 21.3483 34.0646 21.4609 33.8393 21.6863C33.614 21.9116 33.5013 22.1594 33.5013 22.4298V22.7002C33.5013 22.9706 33.614 23.241 33.8393 23.5114C34.0646 23.7818 34.335 23.917 34.6505 23.917C34.9659 23.917 35.2363 23.7818 35.4616 23.5114C35.687 23.241 35.7996 22.9706 35.7996 22.7002V22.4298C35.7996 22.1594 35.687 21.9116 35.4616 21.6863C35.2363 21.4609 34.9434 21.3483 34.5829 21.3483Z" fill="#1563DF"/>
</svg>
