<svg width="28" height="28" viewBox="0 0 28 28" fill="none" xmlns="http://www.w3.org/2000/svg">
<path d="M6.1779 11.7598C5.88832 12.6062 5.74114 13.4948 5.74234 14.3894C5.74234 15.3885 5.92201 16.3454 6.25412 17.2287C6.66805 18.3328 7.31823 19.3331 8.15918 20.1597C9.00013 20.9862 10.0115 21.619 11.1226 22.0138C12.2337 22.4085 13.4176 22.5558 14.5916 22.4451C15.7655 22.3345 16.9011 21.9687 17.9188 21.3733H17.9202C19.5236 20.4332 20.7556 18.9711 21.4101 17.2314H14.1322V11.8469H27.2057C27.5438 13.6279 27.5235 15.4584 27.1458 17.2314C26.4914 20.2965 24.7991 23.0417 22.3547 25.0034C19.9404 26.9475 16.9326 28.0054 13.8328 28.0005C11.4957 28.0018 9.19769 27.4012 7.16012 26.2566C5.12255 25.112 3.4141 23.4619 2.19938 21.4653C0.984664 19.4687 0.304612 17.1929 0.224747 14.8572C0.144881 12.5215 0.667894 10.2046 1.7434 8.12968C2.89077 5.91368 4.62539 4.05582 6.75756 2.75928C8.88973 1.46275 11.3374 0.777445 13.8328 0.778321C17.1348 0.778321 20.1633 1.95432 22.5208 3.9116L18.1108 7.52127C17.0777 6.87833 15.913 6.47652 14.7033 6.34572C13.4935 6.21493 12.2698 6.3585 11.1232 6.76577C9.97662 7.17304 8.93656 7.83354 8.08038 8.69814C7.2242 9.56275 6.57392 10.6092 6.1779 11.7598V11.7598Z" fill="#0F62FE"/>
</svg>
