<svg width="32" height="32" viewBox="0 0 32 32" fill="none" xmlns="http://www.w3.org/2000/svg">
<g clip-path="url(#clip0_155_782)">
<path d="M25.3333 11.6137L18.2226 6.08301C17.5986 5.59755 16.8306 5.33398 16.04 5.33398C15.2494 5.33398 14.4813 5.59755 13.8573 6.08301L6.74529 11.6137C6.31788 11.9461 5.97208 12.3717 5.7343 12.8581C5.49651 13.3446 5.37304 13.8789 5.37329 14.4203V24.0203C5.37329 24.7276 5.65424 25.4059 6.15434 25.906C6.65444 26.4061 7.33271 26.687 8.03996 26.687H24.04C24.7472 26.687 25.4255 26.4061 25.9256 25.906C26.4257 25.4059 26.7066 24.7276 26.7066 24.0203V14.4203C26.7066 13.323 26.2 12.287 25.3333 11.6137Z" fill="#254EF0" stroke="#254EF0" stroke-width="3" stroke-linecap="round" stroke-linejoin="round"/>
<path d="M21.3334 20C18.3867 21.7773 13.6107 21.7773 10.6667 20" stroke="#F9FAFB" stroke-width="3" stroke-linecap="round" stroke-linejoin="round"/>
</g>
<defs>
<clipPath id="clip0_155_782">
<rect width="32" height="32" fill="white"/>
</clipPath>
</defs>
</svg>
