<svg width="40" height="39" viewBox="0 0 40 39" fill="none" xmlns="http://www.w3.org/2000/svg">
<path d="M4.76165 21.9703C4.49126 21.9703 4.28847 22.0379 4.15327 22.1731C4.01808 22.3083 3.95048 22.511 3.95048 22.7814V38.0585C3.95048 38.3289 4.01808 38.5542 4.15327 38.7345C4.28847 38.9148 4.49126 39.0049 4.76165 39.0049H35.1806C35.3609 39.0049 35.5411 38.9148 35.7214 38.7345C35.9017 38.5542 35.9918 38.3289 35.9918 38.0585V25.6205C35.9918 25.3502 35.9017 25.1474 35.7214 25.0122C35.5411 24.877 35.3383 24.8094 35.113 24.8094C34.8877 24.8094 34.7074 24.877 34.5722 25.0122C34.437 25.1474 34.3694 25.3502 34.3694 25.6205V37.2473H5.57282V22.7814C5.57282 22.511 5.48269 22.3083 5.30243 22.1731C5.12217 22.0379 4.94191 21.9703 4.76165 21.9703ZM8.14154 25.4853C7.87115 25.4853 7.66835 25.5529 7.53316 25.6881C7.39796 25.8233 7.33036 26.0261 7.33036 26.2965V38.0585C7.33036 38.3289 7.39796 38.5542 7.53316 38.7345C7.66835 38.9148 7.87115 39.0049 8.14154 39.0049H17.47C17.6503 39.0049 17.8305 38.9148 18.0108 38.7345C18.1911 38.5542 18.2812 38.3289 18.2812 38.0585V28.8652C18.2812 28.685 18.1911 28.5047 18.0108 28.3244C17.8305 28.1442 17.6277 28.0541 17.4024 28.0541C17.1771 28.0541 16.9743 28.1442 16.794 28.3244C16.6138 28.5047 16.5237 28.685 16.5237 28.8652V37.2473H8.95271V27.1077H17.47C17.6503 27.1077 17.8305 27.0401 18.0108 26.9049C18.1911 26.7697 18.2812 26.5669 18.2812 26.2965C18.2812 26.0261 18.1911 25.8233 18.0108 25.6881C17.8305 25.5529 17.6503 25.4853 17.47 25.4853H8.14154ZM21.6611 25.4853C21.3907 25.4853 21.1879 25.5529 21.0527 25.6881C20.9175 25.8233 20.8499 26.0261 20.8499 26.2965V33.8675C20.8499 34.1378 20.9175 34.3406 21.0527 34.4758C21.1879 34.611 21.3907 34.6786 21.6611 34.6786H31.8007C31.981 34.6786 32.1612 34.611 32.3415 34.4758C32.5218 34.3406 32.6119 34.1378 32.6119 33.8675V28.8652C32.6119 28.685 32.5218 28.5047 32.3415 28.3244C32.1612 28.1442 31.9585 28.0541 31.7331 28.0541C31.5078 28.0541 31.3275 28.1442 31.1923 28.3244C31.0572 28.5047 30.9896 28.685 30.9896 28.8652V33.0563H22.4722V27.1077H31.8007C31.981 27.1077 32.1612 27.0401 32.3415 26.9049C32.5218 26.7697 32.6119 26.5669 32.6119 26.2965C32.6119 26.0261 32.5218 25.8233 32.3415 25.6881C32.1612 25.5529 31.981 25.4853 31.8007 25.4853H21.6611ZM19.9035 16.4273C18.9121 16.4273 18.0784 16.7878 17.4024 17.5088C16.7264 18.2299 16.3885 19.0861 16.3885 20.0775C16.3885 21.069 16.7264 21.9252 17.4024 22.6462C18.0784 23.3673 18.9121 23.7278 19.9035 23.7278C20.895 23.7278 21.7512 23.3673 22.4722 22.6462C23.1933 21.9252 23.5538 21.069 23.5538 20.0775C23.5538 19.8071 23.4637 19.6043 23.2834 19.4692C23.1032 19.334 22.9004 19.2664 22.675 19.2664C22.4497 19.2664 22.2469 19.334 22.0667 19.4692C21.8864 19.6043 21.7963 19.8071 21.7963 20.0775C21.7963 20.6183 21.616 21.069 21.2555 21.4295C20.895 21.79 20.4443 21.9703 19.9035 21.9703C19.3628 21.9703 18.9121 21.79 18.5516 21.4295C18.1911 21.069 18.0108 20.6183 18.0108 20.0775C18.0108 19.5367 18.1911 19.0861 18.5516 18.7256C18.9121 18.3651 19.3628 18.1848 19.9035 18.1848C20.4443 18.1848 20.895 18.3651 21.2555 18.7256C21.4357 18.9058 21.6385 18.996 21.8639 18.996C22.0892 18.996 22.292 18.9058 22.4722 18.7256C22.6525 18.5453 22.7426 18.3425 22.7426 18.1172C22.7426 17.8919 22.6525 17.6891 22.4722 17.5088C21.7512 16.7878 20.895 16.4273 19.9035 16.4273ZM25.4465 28.4596C25.086 28.4596 24.8607 28.6399 24.7706 29.0004L23.8242 30.3524C23.7341 30.6228 23.7115 30.8706 23.7566 31.096C23.8017 31.3213 23.9369 31.479 24.1622 31.5691C24.3875 31.6593 24.6128 31.6818 24.8382 31.6367C25.0635 31.5917 25.2212 31.479 25.3113 31.2987L26.1225 29.8116C26.3028 29.6313 26.3478 29.4285 26.2577 29.2032C26.1676 28.9779 26.0549 28.8202 25.9197 28.73C25.7845 28.6399 25.6268 28.5498 25.4465 28.4596ZM28.8264 28.4596C28.4659 28.4596 28.2406 28.6399 28.1505 29.0004L27.2041 30.3524C27.114 30.6228 27.0914 30.8706 27.1365 31.096C27.1816 31.3213 27.3167 31.479 27.5421 31.5691C27.7674 31.6593 27.9927 31.6818 28.2181 31.6367C28.4434 31.5917 28.6011 31.479 28.6912 31.2987L29.5024 29.8116C29.6827 29.6313 29.7277 29.4285 29.6376 29.2032C29.5475 28.9779 29.4348 28.8202 29.2996 28.73C29.1644 28.6399 29.0067 28.5498 28.8264 28.4596ZM33.8287 0.068615C32.3866 0.068615 31.1248 0.609398 30.0432 1.69096C28.9616 2.77252 28.4208 4.07941 28.4208 5.61163C28.4208 7.14384 28.9616 8.4282 30.0432 9.46469C31.1248 10.5012 32.4091 11.0194 33.8963 11.0194C35.3834 11.0194 36.6678 10.5012 37.7493 9.46469C38.8309 8.4282 39.3717 7.14384 39.3717 5.61163C39.3717 4.07941 38.8309 2.77252 37.7493 1.69096C36.6678 0.609398 35.3609 0.068615 33.8287 0.068615ZM33.8287 1.82616C34.9102 1.82616 35.8341 2.18668 36.6002 2.90772C37.3663 3.62876 37.7493 4.53006 37.7493 5.61163C37.7493 6.69319 37.3663 7.59449 36.6002 8.31553C35.8341 9.03658 34.9328 9.3971 33.8963 9.3971C32.8598 9.3971 31.9585 9.03658 31.1923 8.31553C30.4262 7.59449 30.0432 6.69319 30.0432 5.61163C30.0432 4.53006 30.4262 3.62876 31.1923 2.90772C31.9585 2.18668 32.8372 1.82616 33.8287 1.82616ZM4.89685 7.23397C4.71659 7.23397 4.53633 7.30157 4.35607 7.43676C4.17581 7.57196 4.08568 7.77475 4.08568 8.04514V17.644C4.08568 17.8243 4.17581 18.0045 4.35607 18.1848C4.53633 18.3651 4.73912 18.4552 4.96445 18.4552C5.18977 18.4552 5.37003 18.3651 5.50523 18.1848C5.64042 18.0045 5.70802 17.8243 5.70802 17.644V8.85631H9.0879V13.8585C9.0879 14.1289 9.17803 14.3543 9.35829 14.5345C9.53856 14.7148 9.74135 14.8049 9.96667 14.8049C10.192 14.8049 10.3948 14.7148 10.5751 14.5345C10.7553 14.3543 10.8454 14.1289 10.8454 13.8585V8.04514C10.8454 7.77475 10.7553 7.57196 10.5751 7.43676C10.3948 7.30157 10.2145 7.23397 10.0343 7.23397H4.89685ZM3.2745 4.12448C3.00411 4.12448 2.77879 4.21461 2.59853 4.39487C2.41827 4.57513 2.32814 4.75539 2.32814 4.93565V8.04514C2.32814 8.2254 2.41827 8.40566 2.59853 8.58592C2.77879 8.76618 3.00411 8.85631 3.2745 8.85631H11.6566C11.927 8.85631 12.1298 8.76618 12.265 8.58592C12.4002 8.40566 12.4678 8.2254 12.4678 8.04514V4.93565C12.4678 4.75539 12.4002 4.57513 12.265 4.39487C12.1298 4.21461 11.927 4.12448 11.6566 4.12448H3.2745ZM4.08568 5.88202H10.8454V7.23397H4.08568V5.88202ZM12.0622 32.2451C12.0622 32.5155 11.9495 32.7634 11.7242 32.9887C11.4989 33.214 11.251 33.3267 10.9806 33.3267C10.7102 33.3267 10.4624 33.214 10.2371 32.9887C10.0117 32.7634 9.89908 32.493 9.89908 32.1775C9.89908 31.8621 10.0117 31.6142 10.2371 31.4339C10.4624 31.2537 10.7102 31.1636 10.9806 31.1636C11.251 31.1636 11.4989 31.2537 11.7242 31.4339C11.9495 31.6142 12.0622 31.8846 12.0622 32.2451ZM19.7683 7.09877C19.3177 7.09877 18.9121 7.23397 18.5516 7.50436L1.65216 19.1312C1.29164 19.4016 1.06631 19.7846 0.976182 20.2803C0.886051 20.776 0.976182 21.2042 1.24657 21.5647L2.19294 22.9166C2.46333 23.2772 2.82385 23.5025 3.2745 23.5926C3.72515 23.6827 4.17581 23.5926 4.62646 23.3222L19.9035 12.6418L35.3158 23.3222C35.6763 23.5926 36.1044 23.6827 36.6002 23.5926C37.0959 23.5025 37.4789 23.2772 37.7493 22.9166L38.6957 21.5647C38.9661 21.2042 39.0562 20.776 38.9661 20.2803C38.8759 19.7846 38.6506 19.4016 38.2901 19.1312L21.3907 7.50436C20.94 7.23397 20.3993 7.09877 19.7683 7.09877ZM19.9035 8.72112C20.0838 8.72112 20.2641 8.76618 20.4443 8.85631L37.2085 20.6183L36.2622 21.9703L20.4443 11.0194C20.0838 10.7491 19.7683 10.7491 19.4979 11.0194L3.54489 21.9703L2.59853 20.6183L19.4979 8.85631C19.5881 8.76618 19.7233 8.72112 19.9035 8.72112Z" fill="#1563DF"/>
</svg>
