<svg width="41" height="39" viewBox="0 0 41 39" fill="none" xmlns="http://www.w3.org/2000/svg">
<path d="M39.8578 37.383H37.4243V24.5394C37.4243 24.3591 37.3567 24.1789 37.2215 23.9986C37.0863 23.8184 36.906 23.7282 36.6807 23.7282C36.4554 23.7282 36.2526 23.8184 36.0723 23.9986C35.8921 24.1789 35.8019 24.3591 35.8019 24.5394V37.383H30.1237V30.7584C30.1237 30.5781 30.0561 30.3979 29.9209 30.2176C29.7857 30.0374 29.5829 29.9472 29.3126 29.9472H24.1751C23.9949 29.9472 23.8146 30.0374 23.6343 30.2176C23.4541 30.3979 23.364 30.5781 23.364 30.7584V37.383H17.8209V4.80088H35.8019V17.5092C35.8019 17.7796 35.8921 17.9824 36.0723 18.1176C36.2526 18.2528 36.4554 18.3204 36.6807 18.3204C36.906 18.3204 37.0863 18.2528 37.2215 18.1176C37.3567 17.9824 37.4243 17.7796 37.4243 17.5092V3.98971C37.4243 3.71932 37.3567 3.51653 37.2215 3.38133C37.0863 3.24614 36.8835 3.17854 36.6131 3.17854H34.7204V0.880219C34.7204 0.699955 34.6302 0.542229 34.45 0.407032C34.2697 0.271839 34.0895 0.204239 33.9092 0.204239H19.9841C19.8038 0.204239 19.6236 0.271839 19.4433 0.407032C19.263 0.542229 19.1729 0.699955 19.1729 0.880219V3.17854H17.0098C16.8295 3.17854 16.6718 3.24614 16.5366 3.38133C16.4014 3.51653 16.3338 3.71932 16.3338 3.98971V16.2925H10.1148V13.859C10.1148 13.5886 10.0247 13.3858 9.84442 13.2506C9.66416 13.1154 9.4839 13.0478 9.30364 13.0478H3.76063C3.58037 13.0478 3.40011 13.1154 3.21985 13.2506C3.03958 13.3858 2.94945 13.5886 2.94945 13.859V37.383H0.921524C0.651133 37.383 0.44834 37.4506 0.313145 37.5858C0.177949 37.721 0.110352 37.9012 0.110352 38.1265C0.110352 38.3519 0.177949 38.5321 0.313145 38.6673C0.44834 38.8025 0.651133 38.8701 0.921524 38.8701H39.8578C40.1282 38.8701 40.331 38.8025 40.4662 38.6673C40.6014 38.5321 40.669 38.3519 40.669 38.1265C40.669 37.9012 40.6014 37.721 40.4662 37.5858C40.331 37.4506 40.1282 37.383 39.8578 37.383ZM20.7952 1.69139H33.098V3.17854H20.7952V1.69139ZM4.5718 14.6701H8.49247V16.2925H4.5718V14.6701ZM11.3316 37.383H9.43883V34.5439H11.3316V37.383ZM16.3338 37.383H12.9539V33.7327C12.9539 33.5524 12.8638 33.3722 12.6835 33.1919C12.5033 33.0117 12.323 32.9215 12.1427 32.9215H8.62766C8.4474 32.9215 8.26714 33.0117 8.08688 33.1919C7.90662 33.3722 7.81649 33.5524 7.81649 33.7327V37.383H4.5718V17.9148H16.3338V37.383ZM28.6366 37.383H24.9863V31.5696H28.6366V37.383ZM37.2891 20.7539C37.1088 20.3934 36.8384 20.2582 36.4779 20.3484C36.1174 20.4385 35.9146 20.6638 35.8695 21.0243C35.8245 21.3848 35.9597 21.6552 36.2751 21.8355C36.5906 22.0158 36.861 22.0158 37.0863 21.8355C37.3116 21.6552 37.4243 21.475 37.4243 21.2947C37.4243 21.1145 37.3792 20.9342 37.2891 20.7539ZM25.5271 8.31596C25.5271 8.1357 25.437 7.97797 25.2567 7.84278C25.0764 7.70758 24.8962 7.63999 24.7159 7.63999H21.336C21.1558 7.63999 20.9755 7.70758 20.7952 7.84278C20.615 7.97797 20.5249 8.1357 20.5249 8.31596V11.6958C20.5249 11.9662 20.615 12.169 20.7952 12.3042C20.9755 12.4394 21.1558 12.507 21.336 12.507H24.7159C24.8962 12.507 25.0764 12.4394 25.2567 12.3042C25.437 12.169 25.5271 11.9662 25.5271 11.6958V8.31596ZM23.9047 10.8847H22.1472V9.12713H23.9047V10.8847ZM32.9628 8.31596C32.9628 8.1357 32.8727 7.97797 32.6924 7.84278C32.5122 7.70758 32.3319 7.63999 32.1517 7.63999H28.7718C28.5915 7.63999 28.4113 7.70758 28.231 7.84278C28.0507 7.97797 27.9606 8.1357 27.9606 8.31596V11.6958C27.9606 11.9662 28.0507 12.169 28.231 12.3042C28.4113 12.4394 28.5915 12.507 28.7718 12.507H32.1517C32.3319 12.507 32.5122 12.4394 32.6924 12.3042C32.8727 12.169 32.9628 11.9662 32.9628 11.6958V8.31596ZM31.3405 10.8847H29.5829V9.12713H31.3405V10.8847ZM25.5271 15.3461C25.5271 15.0757 25.437 14.8729 25.2567 14.7377C25.0764 14.6025 24.8962 14.535 24.7159 14.535H21.336C21.1558 14.535 20.9755 14.6025 20.7952 14.7377C20.615 14.8729 20.5249 15.0757 20.5249 15.3461V18.5908C20.5249 18.8612 20.615 19.064 20.7952 19.1992C20.9755 19.3344 21.1558 19.402 21.336 19.402H24.7159C24.8962 19.402 25.0764 19.3344 25.2567 19.1992C25.437 19.064 25.5271 18.8612 25.5271 18.5908V15.3461ZM23.9047 17.9148H22.1472V16.1573H23.9047V17.9148ZM32.9628 15.3461C32.9628 15.0757 32.8727 14.8729 32.6924 14.7377C32.5122 14.6025 32.3319 14.535 32.1517 14.535H28.7718C28.5915 14.535 28.4113 14.6025 28.231 14.7377C28.0507 14.8729 27.9606 15.0757 27.9606 15.3461V18.5908C27.9606 18.8612 28.0507 19.064 28.231 19.1992C28.4113 19.3344 28.5915 19.402 28.7718 19.402H32.1517C32.3319 19.402 32.5122 19.3344 32.6924 19.1992C32.8727 19.064 32.9628 18.8612 32.9628 18.5908V15.3461ZM31.3405 17.9148H29.5829V16.1573H31.3405V17.9148ZM24.7159 21.4299H21.336C21.1558 21.4299 20.9755 21.4975 20.7952 21.6327C20.615 21.7679 20.5249 21.9707 20.5249 22.2411V25.621C20.5249 25.8012 20.615 25.9815 20.7952 26.1618C20.9755 26.342 21.1558 26.4321 21.336 26.4321H24.7159C24.8962 26.4321 25.0764 26.342 25.2567 26.1618C25.437 25.9815 25.5271 25.8012 25.5271 25.621V22.2411C25.5271 21.9707 25.437 21.7679 25.2567 21.6327C25.0764 21.4975 24.8962 21.4299 24.7159 21.4299ZM23.9047 24.8098H22.1472V23.0523H23.9047V24.8098ZM32.1517 21.4299H28.7718C28.5915 21.4299 28.4113 21.4975 28.231 21.6327C28.0507 21.7679 27.9606 21.9707 27.9606 22.2411V25.621C27.9606 25.8012 28.0507 25.9815 28.231 26.1618C28.4113 26.342 28.5915 26.4321 28.7718 26.4321H32.1517C32.3319 26.4321 32.5122 26.342 32.6924 26.1618C32.8727 25.9815 32.9628 25.8012 32.9628 25.621V22.2411C32.9628 21.9707 32.8727 21.7679 32.6924 21.6327C32.5122 21.4975 32.3319 21.4299 32.1517 21.4299ZM31.3405 24.8098H29.5829V23.0523H31.3405V24.8098ZM7.14051 19.6724C6.96025 19.6724 6.77999 19.7625 6.59973 19.9428C6.41947 20.123 6.32934 20.3033 6.32934 20.4835V30.488C6.32934 30.6683 6.41947 30.8485 6.59973 31.0288C6.77999 31.209 6.96025 31.2992 7.14051 31.2992C7.32077 31.2992 7.50103 31.209 7.68129 31.0288C7.86155 30.8485 7.95168 30.6683 7.95168 30.488V20.4835C7.95168 20.3033 7.86155 20.123 7.68129 19.9428C7.50103 19.7625 7.32077 19.6724 7.14051 19.6724ZM10.3852 31.2992C10.5655 31.2992 10.7457 31.209 10.926 31.0288C11.1062 30.8485 11.1964 30.6683 11.1964 30.488V20.4835C11.1964 20.3033 11.1062 20.123 10.926 19.9428C10.7457 19.7625 10.5655 19.6724 10.3852 19.6724C10.2049 19.6724 10.0247 19.7625 9.84442 19.9428C9.66416 20.123 9.57403 20.3033 9.57403 20.4835V30.488C9.57403 30.6683 9.66416 30.8485 9.84442 31.0288C10.0247 31.209 10.2049 31.2992 10.3852 31.2992ZM13.6299 31.2992C13.8102 31.2992 13.9904 31.209 14.1707 31.0288C14.3509 30.8485 14.4411 30.6683 14.4411 30.488V20.4835C14.4411 20.3033 14.3509 20.123 14.1707 19.9428C13.9904 19.7625 13.8102 19.6724 13.6299 19.6724C13.4496 19.6724 13.2694 19.7625 13.0891 19.9428C12.9088 20.123 12.8187 20.3033 12.8187 20.4835V30.488C12.8187 30.6683 12.9088 30.8485 13.0891 31.0288C13.2694 31.209 13.4496 31.2992 13.6299 31.2992Z" fill="#1563DF"/>
</svg>
