<svg width="21" height="21" viewBox="0 0 21 21" fill="none" xmlns="http://www.w3.org/2000/svg">
<path d="M2.56128 4.57075C2.56128 3.62774 3.32574 2.86328 4.26875 2.86328H7.06836C7.43583 2.86328 7.76208 3.09843 7.87829 3.44704L9.15702 7.28326C9.29138 7.68632 9.10891 8.12683 8.7289 8.31684L6.80179 9.28039C7.74282 11.3675 9.42428 13.049 11.5114 13.99L12.475 12.0629C12.665 11.6829 13.1055 11.5004 13.5086 11.6348L17.3448 12.9135C17.6934 13.0297 17.9285 13.356 17.9285 13.7235V16.5231C17.9285 17.4661 17.1641 18.2305 16.2211 18.2305H15.3673C8.29474 18.2305 2.56128 12.4971 2.56128 5.42449V4.57075Z" stroke="#1563DF" stroke-width="1.70747" stroke-linecap="round" stroke-linejoin="round"/>
</svg>
