<svg width="25" height="25" viewBox="0 0 25 25" fill="none" xmlns="http://www.w3.org/2000/svg">
<g clip-path="url(#clip0_74_3114)">
<path d="M11.0583 4.39903C11.4843 2.64303 13.9823 2.64303 14.4083 4.39903C14.4722 4.66283 14.5975 4.90781 14.774 5.11403C14.9505 5.32025 15.1732 5.48189 15.4239 5.58578C15.6747 5.68967 15.9464 5.73288 16.2171 5.7119C16.4877 5.69092 16.7495 5.60633 16.9813 5.46503C18.5243 4.52503 20.2913 6.29103 19.3513 7.83503C19.2102 8.06669 19.1257 8.32837 19.1048 8.5988C19.0839 8.86924 19.127 9.1408 19.2308 9.39141C19.3346 9.64202 19.496 9.86461 19.702 10.0411C19.908 10.2176 20.1527 10.3429 20.4163 10.407C22.1723 10.833 22.1723 13.331 20.4163 13.757C20.1525 13.8209 19.9075 13.9463 19.7013 14.1227C19.4951 14.2992 19.3334 14.5219 19.2295 14.7727C19.1256 15.0234 19.0824 15.2952 19.1034 15.5658C19.1244 15.8364 19.209 16.0983 19.3503 16.33C20.2903 17.873 18.5243 19.64 16.9803 18.7C16.7486 18.5589 16.4869 18.4745 16.2165 18.4535C15.9461 18.4326 15.6745 18.4758 15.4239 18.5796C15.1733 18.6833 14.9507 18.8448 14.7742 19.0508C14.5978 19.2567 14.4724 19.5015 14.4083 19.765C13.9823 21.521 11.4843 21.521 11.0583 19.765C10.9944 19.5012 10.8691 19.2563 10.6926 19.05C10.5161 18.8438 10.2934 18.6822 10.0426 18.5783C9.79186 18.4744 9.52011 18.4312 9.24949 18.4522C8.97887 18.4731 8.71703 18.5577 8.48528 18.699C6.94228 19.639 5.17528 17.873 6.11528 16.329C6.25638 16.0974 6.34083 15.8357 6.36176 15.5653C6.38269 15.2948 6.33952 15.0233 6.23575 14.7727C6.13198 14.522 5.97054 14.2995 5.76455 14.123C5.55856 13.9465 5.31384 13.8211 5.05028 13.757C3.29428 13.331 3.29428 10.833 5.05028 10.407C5.31408 10.3431 5.55906 10.2178 5.76528 10.0413C5.9715 9.86483 6.13313 9.64214 6.23702 9.39138C6.34091 9.14062 6.38413 8.86887 6.36315 8.59825C6.34216 8.32763 6.25758 8.06578 6.11628 7.83403C5.17628 6.29103 6.94228 4.52403 8.48628 5.46403C9.48628 6.07203 10.7823 5.53403 11.0583 4.39903Z" stroke="#0B0B0B" stroke-width="2" stroke-linecap="round" stroke-linejoin="round"/>
<path d="M12.7333 15.082C14.3901 15.082 15.7333 13.7389 15.7333 12.082C15.7333 10.4252 14.3901 9.08203 12.7333 9.08203C11.0764 9.08203 9.73328 10.4252 9.73328 12.082C9.73328 13.7389 11.0764 15.082 12.7333 15.082Z" stroke="#0B0B0B" stroke-width="2" stroke-linecap="round" stroke-linejoin="round"/>
</g>
<defs>
<clipPath id="clip0_74_3114">
<rect width="24" height="24" fill="white" transform="translate(0.733276 0.0820312)"/>
</clipPath>
</defs>
</svg>
