<svg width="24" height="24" viewBox="0 0 24 24" fill="none" xmlns="http://www.w3.org/2000/svg">
<g clip-path="url(#clip0_245_2143)">
<path d="M9.26367 21.386C9.78609 21.386 10.2096 20.9625 10.2096 20.4401C10.2096 19.9176 9.78609 19.4941 9.26367 19.4941C8.74125 19.4941 8.31775 19.9176 8.31775 20.4401C8.31775 20.9625 8.74125 21.386 9.26367 21.386Z" stroke="#0B0B0B" stroke-width="1.89184" stroke-linecap="round" stroke-linejoin="round"/>
<path d="M19.6678 21.386C20.1903 21.386 20.6138 20.9625 20.6138 20.4401C20.6138 19.9176 20.1903 19.4941 19.6678 19.4941C19.1454 19.4941 18.7219 19.9176 18.7219 20.4401C18.7219 20.9625 19.1454 21.386 19.6678 21.386Z" stroke="#0B0B0B" stroke-width="1.89184" stroke-linecap="round" stroke-linejoin="round"/>
<path d="M1.69543 1.52148H5.47912L8.01418 14.1874C8.10068 14.6229 8.3376 15.0141 8.68346 15.2925C9.02933 15.5709 9.4621 15.7188 9.90602 15.7103H19.1004C19.5443 15.7188 19.9771 15.5709 20.3229 15.2925C20.6688 15.0141 20.9057 14.6229 20.9922 14.1874L22.5057 6.25109H6.42504" stroke="#0B0B0B" stroke-width="1.89184" stroke-linecap="round" stroke-linejoin="round"/>
</g>
<defs>
<clipPath id="clip0_245_2143">
<rect width="22.7021" height="22.7021" fill="white" transform="translate(0.75 0.576172)"/>
</clipPath>
</defs>
</svg>
