<svg width="40" height="39" viewBox="0 0 40 39" fill="none" xmlns="http://www.w3.org/2000/svg">
<path d="M1.43422 33.8675C1.25396 33.8675 1.0737 33.9576 0.893438 34.1378C0.713177 34.3181 0.623047 34.4984 0.623047 34.6786V38.0585C0.623047 38.3289 0.713177 38.5542 0.893438 38.7345C1.0737 38.9148 1.25396 39.0049 1.43422 39.0049H31.042C31.3124 39.0049 31.5377 38.9148 31.718 38.7345C31.8982 38.5542 31.9433 38.3289 31.8532 38.0585V34.6786C31.8532 34.4984 31.7856 34.3181 31.6504 34.1378C31.5152 33.9576 31.3124 33.8675 31.042 33.8675H1.43422ZM2.38059 35.625H30.2308V37.2473H2.38059V35.625ZM28.4733 18.7256C28.293 18.7256 28.1128 18.7932 27.9325 18.9284C27.7523 19.0636 27.6621 19.2664 27.6621 19.5367V33.8675H4.8141V22.2407C4.90423 21.9703 4.85917 21.7675 4.67891 21.6323C4.49865 21.4971 4.29585 21.4295 4.07053 21.4295C3.8452 21.4295 3.64241 21.4971 3.46215 21.6323C3.28189 21.7675 3.19176 21.9703 3.19176 22.2407V34.6786C3.19176 34.949 3.28189 35.1743 3.46215 35.3546C3.64241 35.5349 3.82267 35.625 4.00293 35.625H28.4733C28.7437 35.625 28.969 35.5349 29.1493 35.3546C29.3295 35.1743 29.4197 34.949 29.4197 34.6786V19.5367C29.4197 19.2664 29.3295 19.0636 29.1493 18.9284C28.969 18.7932 28.7437 18.7256 28.4733 18.7256ZM4.8141 9.3971C4.45358 9.3971 4.22826 9.57736 4.13813 9.93788L0.758242 19.2664C0.668112 19.5367 0.690645 19.7846 0.82584 20.0099C0.961035 20.2353 1.16383 20.3479 1.43422 20.3479H31.042C31.4025 20.3479 31.6504 20.2353 31.7856 20.0099C31.9208 19.7846 31.9433 19.5367 31.8532 19.2664L28.4733 9.93788C28.3832 9.57736 28.1128 9.3971 27.6621 9.3971H23.4711C23.2007 9.3971 22.9979 9.48723 22.8627 9.66749C22.7275 9.84775 22.6599 10.0505 22.6599 10.2759C22.6599 10.5012 22.7275 10.6815 22.8627 10.8166C22.9979 10.9518 23.2007 11.0194 23.4711 11.0194H27.1213L29.8252 18.7256H2.65098L5.49008 11.0194H9.54594C9.7262 11.0194 9.90646 10.9518 10.0867 10.8166C10.267 10.6815 10.3571 10.5012 10.3571 10.2759C10.3571 10.0505 10.267 9.84775 10.0867 9.66749C9.90646 9.48723 9.7262 9.3971 9.54594 9.3971H4.8141ZM9.54594 6.4228C9.27555 6.4228 9.07276 6.51293 8.93756 6.69319C8.80237 6.87345 8.73477 7.09877 8.73477 7.36917V15.3457C8.73477 15.526 8.80237 15.7062 8.93756 15.8865C9.07276 16.0667 9.27555 16.1569 9.54594 16.1569H23.0655C23.2457 16.1569 23.426 16.0667 23.6063 15.8865C23.7865 15.7062 23.8767 15.526 23.8767 15.3457V7.36917C23.8767 7.09877 23.7865 6.87345 23.6063 6.69319C23.426 6.51293 23.2232 6.4228 22.9979 6.4228C22.7726 6.4228 22.5923 6.51293 22.4571 6.69319C22.3219 6.87345 22.2543 7.09877 22.2543 7.36917V14.3993H10.3571V7.36917C10.3571 7.09877 10.267 6.87345 10.0867 6.69319C9.90646 6.51293 9.7262 6.4228 9.54594 6.4228ZM9.14036 0.068615C8.6897 0.068615 8.41931 0.293941 8.32918 0.744591L6.16606 7.09877C6.07593 7.36917 6.12099 7.61702 6.30125 7.84235C6.48151 8.06767 6.70684 8.18034 6.97723 8.18034H25.6342C25.9046 8.18034 26.1299 8.06767 26.3102 7.84235C26.4904 7.61702 26.5355 7.36917 26.4454 7.09877L24.2822 0.744591C24.1921 0.293941 23.9217 0.068615 23.4711 0.068615H9.14036ZM9.68114 1.82616H22.9303L24.4174 6.4228H8.19399L9.68114 1.82616ZM7.38282 24.6742C7.20256 24.584 7.02229 24.6291 6.84203 24.8094C6.66177 24.9896 6.57164 25.215 6.57164 25.4853V34.6786C6.57164 34.949 6.66177 35.1743 6.84203 35.3546C7.02229 35.5349 7.20256 35.625 7.38282 35.625H14.6834C14.8636 35.625 15.0439 35.5349 15.2241 35.3546C15.4044 35.1743 15.4945 34.949 15.4945 34.6786V25.4853C15.4945 25.215 15.4044 25.0122 15.2241 24.877C15.0439 24.7418 14.8636 24.6742 14.6834 24.6742H7.38282ZM8.32918 26.2965H13.737V33.8675H8.32918V26.2965ZM18.0632 24.6742C17.7929 24.584 17.5675 24.6291 17.3873 24.8094C17.207 24.9896 17.1169 25.215 17.1169 25.4853V31.1636C17.1169 31.3438 17.207 31.5241 17.3873 31.7043C17.5675 31.8846 17.7929 31.9747 18.0632 31.9747H26.0398C26.22 31.9747 26.4003 31.8846 26.5806 31.7043C26.7608 31.5241 26.851 31.3438 26.851 31.1636V28.3244C26.851 28.0541 26.7608 27.8513 26.5806 27.7161C26.4003 27.5809 26.1975 27.5133 25.9722 27.5133C25.7469 27.5133 25.5441 27.5809 25.3638 27.7161C25.1835 27.8513 25.0934 28.0541 25.0934 28.3244V30.3524H18.8744V26.2965H26.0398C26.22 26.2965 26.4003 26.2064 26.5806 26.0261C26.7608 25.8459 26.851 25.6431 26.851 25.4177C26.851 25.1924 26.7608 25.0122 26.5806 24.877C26.4003 24.7418 26.22 24.6742 26.0398 24.6742H18.0632ZM13.3314 8.85631C13.061 8.76618 12.8582 8.81125 12.723 8.99151C12.5878 9.17177 12.5202 9.3971 12.5202 9.66749V13.0474C12.5202 13.2276 12.5878 13.4079 12.723 13.5882C12.8582 13.7684 13.061 13.8585 13.3314 13.8585H19.28C19.4603 13.8585 19.6405 13.7684 19.8208 13.5882C20.0011 13.4079 20.0912 13.2276 20.0912 13.0474V9.66749C20.0912 9.3971 20.0011 9.17177 19.8208 8.99151C19.6405 8.81125 19.4603 8.76618 19.28 8.85631H13.3314ZM14.1426 10.4787H18.4688V12.101H14.1426V10.4787ZM34.4219 0.068615C33.0699 0.068615 31.8982 0.564331 30.9068 1.55576C29.9154 2.5472 29.4197 3.74142 29.4197 5.13844C29.4197 6.53546 29.9154 7.72969 30.9068 8.72112C31.8982 9.71255 33.0925 10.2083 34.4895 10.2083C35.8865 10.2083 37.0807 9.71255 38.0722 8.72112C39.0636 7.72969 39.5593 6.53546 39.5593 5.13844C39.5593 3.74142 39.0636 2.5472 38.0722 1.55576C37.0807 0.564331 35.864 0.068615 34.4219 0.068615ZM34.4219 1.82616C35.4133 1.82616 36.2245 2.14161 36.8554 2.77252C37.4863 3.40343 37.8018 4.19207 37.8018 5.13844C37.8018 6.08481 37.4863 6.89598 36.8554 7.57196C36.2245 8.24793 35.4359 8.58592 34.4895 8.58592C33.5431 8.58592 32.7319 8.24793 32.056 7.57196C31.38 6.89598 31.042 6.08481 31.042 5.13844C31.042 4.19207 31.38 3.40343 32.056 2.77252C32.7319 2.14161 33.5206 1.82616 34.4219 1.82616ZM11.1683 30.082C11.1683 30.3524 11.0782 30.5777 10.8979 30.758C10.7176 30.9382 10.5148 31.0284 10.2895 31.0284C10.0642 31.0284 9.8614 30.9382 9.68114 30.758C9.50088 30.5777 9.41075 30.3524 9.41075 30.082C9.41075 29.8116 9.50088 29.5863 9.68114 29.406C9.8614 29.2258 10.0642 29.1356 10.2895 29.1356C10.5148 29.1356 10.7176 29.2258 10.8979 29.406C11.0782 29.5863 11.1683 29.8116 11.1683 30.082ZM21.0375 27.1077C20.677 27.1077 20.4066 27.2429 20.2264 27.5133L19.8208 28.1893C19.6405 28.4596 19.5955 28.7075 19.6856 28.9328C19.7757 29.1582 19.9109 29.3159 20.0912 29.406C20.2714 29.4961 20.4742 29.5187 20.6996 29.4736C20.9249 29.4285 21.1277 29.3159 21.3079 29.1356L21.7135 28.3244C21.8037 28.1442 21.8262 27.9414 21.7811 27.7161C21.7361 27.4907 21.6234 27.333 21.4431 27.2429C21.2629 27.1528 21.1277 27.1077 21.0375 27.1077ZM23.4711 27.1077C23.2007 27.1077 22.9753 27.2429 22.7951 27.5133L22.3895 28.1893C22.2092 28.4596 22.1642 28.7075 22.2543 28.9328C22.3444 29.1582 22.4796 29.3159 22.6599 29.406C22.8402 29.4961 23.0429 29.5187 23.2683 29.4736C23.4936 29.4285 23.6513 29.3159 23.7415 29.1356L24.147 28.3244C24.3273 28.1442 24.3724 27.9414 24.2822 27.7161C24.1921 27.4907 24.0794 27.333 23.9442 27.2429C23.8091 27.1528 23.6513 27.1077 23.4711 27.1077Z" fill="#1563DF"/>
</svg>
