<svg width="41" height="39" viewBox="0 0 41 39" fill="none" xmlns="http://www.w3.org/2000/svg">
<path d="M28.6781 27.5136C28.3176 27.5136 28.0698 27.3333 27.9346 26.9728C27.7994 26.6123 27.867 26.2968 28.1374 26.0264C28.4078 25.756 28.7232 25.7335 29.0837 25.9588C29.4442 26.1842 29.5794 26.432 29.4893 26.7024C29.3992 26.9728 29.2865 27.1756 29.1513 27.3108C29.0161 27.446 28.8584 27.5136 28.6781 27.5136ZM24.2167 12.6421H16.9161C16.6458 12.6421 16.443 12.7097 16.3078 12.8449C16.1726 12.9801 16.105 13.1829 16.105 13.4533V23.4577C16.105 23.7281 16.1726 23.9309 16.3078 24.0661C16.443 24.2013 16.6458 24.2689 16.9161 24.2689H24.2167C24.4871 24.2689 24.6899 24.2013 24.8251 24.0661C24.9603 23.9309 25.0279 23.7281 25.0279 23.4577V13.4533C25.0279 13.1829 24.9603 12.9801 24.8251 12.8449C24.6899 12.7097 24.4871 12.6421 24.2167 12.6421ZM17.5921 14.2644H19.7552V22.7817H17.5921V14.2644ZM23.5407 22.7817H21.3776V14.2644H23.5407V22.7817ZM40.4401 19.9426L29.4893 13.4533V7.63987C29.4893 7.36947 29.3992 7.14415 29.2189 6.96389L21.1072 0.609703C20.7467 0.429443 20.3862 0.429443 20.0256 0.609703L11.9139 6.96389C11.7337 7.14415 11.6435 7.36947 11.6435 7.63987V13.4533L0.692696 19.9426C0.422305 20.0328 0.287109 20.2581 0.287109 20.6186V24.9449C0.287109 25.2153 0.37724 25.4181 0.5575 25.5533C0.737761 25.6884 0.895489 25.756 1.03068 25.756C1.16588 25.756 1.32361 25.711 1.50387 25.6209L2.04465 25.3505V37.7884C2.04465 37.9687 2.11225 38.149 2.24744 38.3292C2.38264 38.5095 2.58543 38.5996 2.85582 38.5996H38.277C38.5474 38.5996 38.7502 38.5095 38.8854 38.3292C39.0206 38.149 39.0882 37.9687 39.0882 37.7884V25.3505L39.629 25.6209C39.8092 25.711 39.967 25.756 40.1021 25.756C40.2373 25.756 40.3951 25.6884 40.5753 25.5533C40.7556 25.4181 40.8457 25.2153 40.8457 24.9449V20.6186C40.8457 20.2581 40.7105 20.0328 40.4401 19.9426ZM20.5664 2.23205L27.867 8.04545V10.6142L21.1072 5.34155C20.7467 5.07115 20.3862 5.07115 20.0256 5.34155L13.2659 10.6142V8.04545L20.5664 2.23205ZM1.90945 21.0242L11.6435 15.2108V17.7795L1.90945 23.5929V21.0242ZM3.66699 28.1896H7.04688V32.9214H3.66699V28.1896ZM3.66699 34.4086H7.85805C8.12844 34.4086 8.33123 34.341 8.46643 34.2058C8.60163 34.0706 8.66922 33.8678 8.66922 33.5974V27.3784C8.66922 27.108 8.60163 26.9052 8.46643 26.77C8.33123 26.6348 8.12844 26.5672 7.85805 26.5672H3.66699V24.4041L11.6435 19.6723V36.9773H3.66699V34.4086ZM18.6737 36.9773V28.3248H22.4592V36.9773H18.6737ZM37.4658 32.9214H33.8156V28.1896H37.4658V32.9214ZM37.4658 26.5672H33.0044C32.8241 26.5672 32.6664 26.6348 32.5312 26.77C32.396 26.9052 32.3284 27.108 32.3284 27.3784V33.5974C32.3284 33.8678 32.396 34.0706 32.5312 34.2058C32.6664 34.341 32.8241 34.4086 33.0044 34.4086H37.4658V36.9773H29.4893V30.2175C29.4893 30.0372 29.4217 29.857 29.2865 29.6767C29.1513 29.4965 28.9711 29.4063 28.7457 29.4063C28.5204 29.4063 28.3176 29.4965 28.1374 29.6767C27.9571 29.857 27.867 30.0372 27.867 30.2175V36.9773H23.9463V27.6488C23.9463 27.3784 23.8787 27.1756 23.7435 27.0404C23.6083 26.9052 23.4506 26.8376 23.2703 26.8376H17.8625C17.6822 26.8376 17.5245 26.9052 17.3893 27.0404C17.2541 27.1756 17.1865 27.3784 17.1865 27.6488V36.9773H13.2659V12.6421L20.5664 6.96389L27.867 12.6421V23.0521C27.867 23.3225 27.9571 23.5253 28.1374 23.6605C28.3176 23.7957 28.5204 23.8633 28.7457 23.8633C28.9711 23.8633 29.1513 23.7957 29.2865 23.6605C29.4217 23.5253 29.4893 23.3225 29.4893 23.0521V19.6723L37.4658 24.4041V26.5672ZM39.2234 23.5929L29.4893 17.7795V15.2108L39.2234 21.0242V23.5929Z" fill="#1563DF"/>
</svg>
